<svg xmlns="http://www.w3.org/2000/svg" width="232" height="38" fill="none">
	<path fill="#FCFBFB" d="M22.826 19.42c-3.79 0-7.05 2.347-8.43 5.704-.888 2.163-2.964 3.592-5.27 3.592H4.613c-2.513 0-4.601-2.045-4.627-4.615-.013-2.583 2.037-4.681 4.563-4.681h18.276ZM4.563 38c3.79 0 7.05-2.347 8.43-5.704.888-2.164 2.963-3.593 5.27-3.593h4.512c2.513 0 4.601 2.046 4.627 4.616.013 2.583-2.037 4.68-4.563 4.68H4.563Z" />
	<path fill="#FCFBFB" d="M37.352 38h-1.65C35.702 17.964 19.682 1.678 0 1.678V0c9.976 0 19.36 3.947 26.41 11.133C33.46 18.305 37.351 27.85 37.351 38Z" />
	<path fill="#FCFBFB" d="M4.344 15.945c2.398 0 4.343-1.979 4.343-4.42 0-2.44-1.945-4.418-4.343-4.418C1.944 7.107 0 9.085 0 11.526c0 2.44 1.945 4.419 4.344 4.419Z" />
</svg>
