<svg xmlns="http://www.w3.org/2000/svg" width="232" height="38" fill="none">
	<path fill="#6D6D6D" d="M22.826 19.42c-3.79 0-7.05 2.347-8.43 5.704-.888 2.163-2.964 3.592-5.27 3.592H4.613c-2.513 0-4.601-2.045-4.627-4.615-.013-2.583 2.037-4.681 4.563-4.681h18.276ZM4.563 38c3.79 0 7.05-2.347 8.43-5.704.888-2.164 2.963-3.593 5.27-3.593h4.512c2.513 0 4.601 2.046 4.627 4.616.013 2.583-2.037 4.68-4.563 4.68H4.563Z" />
	<path fill="#6D6D6D" d="M37.352 38h-1.65C35.702 17.964 19.682 1.678 0 1.678V0c9.976 0 19.36 3.947 26.41 11.133C33.46 18.305 37.351 27.85 37.351 38Z" />
	<path fill="#6D6D6D" d="M4.344 15.945c2.398 0 4.343-1.979 4.343-4.42 0-2.44-1.945-4.418-4.343-4.418C1.944 7.107 0 9.085 0 11.526c0 2.44 1.945 4.419 4.344 4.419Z" />
	<path fill="#104867" d="M59.946 31.378c.98-.433 1.74-1.062 2.295-1.888.592-.878.889-1.967.889-3.291v-.38c0-1.312-.297-2.413-.877-3.305-.58-.892-1.417-1.56-2.513-2.02-1.083-.458-2.384-.681-3.88-.681h-7.166v17.715h4.408v-5.402h2.5l3.507 5.389h5.065l-4.228-6.137Zm-1.572-3.894c-.22.38-.503.682-.89.891-.373.21-.824.315-1.353.315h-3.029v-5.127h3.03c.515 0 .966.105 1.353.315.373.21.67.511.889.892.219.38.322.839.322 1.376-.013.499-.116.944-.322 1.338ZM86.085 19.944v17.57H81.73v-13.19l-3.764 9.65H73.97l-3.738-9.532v13.073H66.21v-17.57h6.11l3.544 9.27h.477l3.519-9.27h6.225ZM105.431 19.944h-7.05l-5.53 17.57h4.396l1.224-4.064h6.896l1.25 4.065h4.537l-5.723-17.57Zm-5.864 9.848 1.869-6.229h.889l1.92 6.229h-4.678ZM117.212 19.944v17.57h-4.305V23.118h-1.469v-3.173h5.774ZM134.457 37.515h-4.795l-3.853-6.202h-1.122v6.202h-4.305v-17.57h4.305V30.42l4.473-6.19h4.498l-4.125 5.665 4.924 7.619ZM141.958 38c-1.147 0-2.178-.17-3.08-.524-.902-.354-1.663-.84-2.281-1.469a6.456 6.456 0 0 1-1.418-2.163 7.077 7.077 0 0 1-.49-2.623v-.577c0-.957.168-1.862.503-2.701.335-.84.825-1.56 1.456-2.19.632-.63 1.392-1.114 2.294-1.468.903-.355 1.895-.525 3.003-.525 1.122 0 2.127.17 3.016.524.89.355 1.65.84 2.282 1.47a6.424 6.424 0 0 1 1.456 2.189c.335.84.503 1.73.503 2.701v.577c0 .931-.168 1.81-.49 2.622a6.456 6.456 0 0 1-1.418 2.164c-.618.63-1.379 1.115-2.281 1.469-.876.34-1.895.524-3.055.524Zm0-3.658c.658 0 1.212-.144 1.65-.433.438-.288.761-.695.98-1.22a4.555 4.555 0 0 0 .335-1.77c0-.695-.116-1.298-.348-1.822a2.972 2.972 0 0 0-1.006-1.246c-.438-.302-.979-.459-1.611-.459-.631 0-1.173.157-1.611.46a2.899 2.899 0 0 0-1.005 1.245c-.232.524-.348 1.127-.348 1.822 0 .656.116 1.246.335 1.77.219.525.554.932.992 1.22.452.289.993.433 1.637.433ZM164.218 29.91v7.605h-4.305v-7.723c0-.604-.181-1.115-.529-1.508-.361-.394-.838-.59-1.456-.59-.619 0-1.109.196-1.482.59-.374.393-.555.904-.555 1.547v7.684h-4.305V24.232h3.403v3.475c.077-.433.193-.84.335-1.194.348-.904.864-1.586 1.547-2.032.683-.446 1.521-.669 2.5-.669h.194c1.482 0 2.629.498 3.441 1.508.812.984 1.212 2.518 1.212 4.59ZM178.279 38c-1.611 0-2.964-.262-4.06-.774-1.095-.51-1.92-1.219-2.487-2.11-.555-.892-.838-1.915-.838-3.069h4.253c0 .42.116.8.348 1.14.232.342.567.617 1.031.8.451.197 1.044.29 1.753.29.619 0 1.134-.08 1.573-.237.438-.157.76-.38.992-.669.232-.288.348-.629.348-1.035 0-.512-.219-.905-.644-1.194-.426-.275-1.148-.459-2.153-.537l-1.108-.092c-1.779-.158-3.197-.735-4.254-1.705-1.057-.983-1.585-2.281-1.585-3.894 0-1.154.258-2.138.786-2.964.529-.813 1.276-1.442 2.23-1.875.967-.432 2.101-.655 3.403-.655 1.417 0 2.616.236 3.609.72.979.486 1.74 1.155 2.255 2.033.516.879.786 1.889.786 3.042h-4.253c0-.38-.09-.734-.284-1.062a2.083 2.083 0 0 0-.812-.76c-.36-.184-.786-.276-1.288-.276-.477 0-.877.08-1.199.223a1.705 1.705 0 0 0-.735.643 1.72 1.72 0 0 0-.245.918c0 .445.155.839.451 1.154.297.314.825.511 1.56.576l1.108.092c1.289.118 2.436.394 3.429.853.992.459 1.779 1.075 2.346 1.862.567.786.85 1.744.85 2.884 0 1.141-.283 2.138-.863 2.99-.58.852-1.392 1.508-2.462 1.98-1.07.472-2.346.708-3.841.708ZM191.942 27.405l-.013 4.813c0 .59.154 1.048.464 1.363.309.315.747.472 1.34.472h1.792v3.659h-1.779c-1.418 0-2.552-.17-3.39-.525-.838-.354-1.456-.944-1.83-1.757-.374-.813-.567-1.927-.567-3.317l.013-4.695h-1.908v-3.173h1.908l.013-3.462h3.969l-.012 3.462h3.583v3.16h-3.583ZM208.362 26.396c-.503-.8-1.212-1.403-2.153-1.81-.941-.406-2.075-.603-3.415-.603-.477 0-.993.013-1.547.026-.554.013-1.095.04-1.624.079-.515.026-.967.065-1.353.092v3.658c.541-.026 1.121-.066 1.778-.092.645-.026 1.264-.052 1.844-.078.58-.014 1.031-.027 1.327-.027.632 0 1.083.145 1.366.446.271.289.413.721.413 1.311h-2.062c-1.186 0-2.23.145-3.145.433-.915.289-1.637.747-2.153 1.364-.515.616-.786 1.429-.786 2.413 0 .878.206 1.639.606 2.268.399.63.954 1.114 1.662 1.455.709.341 1.521.512 2.436.512.916 0 1.689-.17 2.308-.512a3.767 3.767 0 0 0 1.469-1.455c.142-.262.271-.55.361-.852v2.478h3.402v-8.064c0-1.22-.244-2.242-.734-3.042ZM204.65 34c-.194.34-.426.577-.722.708s-.632.21-1.005.21c-.58 0-1.031-.144-1.354-.446-.309-.302-.477-.682-.477-1.167 0-.498.155-.892.477-1.193.31-.302.761-.446 1.354-.446h2.062v.944c-.026.59-.142 1.049-.335 1.39ZM224.615 29.962v7.553h-4.305v-7.723c0-.604-.181-1.115-.541-1.508-.361-.394-.851-.59-1.444-.59-.606 0-1.083.196-1.469.59-.374.393-.567.904-.567 1.547v7.684h-4.305v-17.57h4.305v6.437c.322-.826.786-1.455 1.379-1.888.644-.459 1.43-.695 2.371-.695h.194c1.417 0 2.5.525 3.248 1.56.76 1.05 1.134 2.584 1.134 4.603ZM232 19.944v17.57h-4.305V23.118h-1.469v-3.173H232Z" />
</svg>
