<svg width="147" height="24" viewBox="0 0 147 24" fill="none" xmlns="http://www.w3.org/2000/svg">
	<path d="M14.4247 12.265C12.0314 12.265 9.97195 13.7474 9.10093 15.8674C8.53925 17.2339 7.22865 18.1366 5.77153 18.1366H2.92242C1.33505 18.1366 0.0163189 16.8447 3.81884e-05 15.2215C-0.00810214 13.59 1.28621 12.265 2.88172 12.265H14.4247Z" fill="#FCFBFB" />
	<path d="M2.89014 23.9999C5.28339 23.9999 7.3429 22.5175 8.21391 20.3974C8.7756 19.031 10.0862 18.1283 11.5433 18.1283H14.3924C15.9798 18.1283 17.2985 19.4202 17.3148 21.0434C17.3229 22.6749 16.0286 23.9999 14.4331 23.9999H2.89014Z" fill="#FCFBFB" />
	<path d="M23.599 23.9999H22.557C22.557 11.3457 12.4386 1.06004 0.00830078 1.06004V0C6.30892 0 12.2351 2.49275 16.6878 7.03104C21.1406 11.5611 23.599 17.59 23.599 23.9999Z" fill="#FCFBFB" />
	<path d="M2.75159 10.0704C4.26667 10.0704 5.49488 8.82083 5.49488 7.27947C5.49488 5.73811 4.26667 4.48859 2.75159 4.48859C1.23651 4.48859 0.00830078 5.73811 0.00830078 7.27947C0.00830078 8.82083 1.23651 10.0704 2.75159 10.0704Z" fill="#FCFBFB" />
	<path d="M37.8685 19.8178C38.4872 19.5445 38.9675 19.147 39.3175 18.6253C39.6919 18.0704 39.8792 17.383 39.8792 16.5466V16.3064C39.8792 15.4783 39.6919 14.7826 39.3256 14.2195C38.9593 13.6563 38.4302 13.234 37.7383 12.9441C37.0545 12.6543 36.2323 12.5135 35.288 12.5135H30.762V23.7019H33.546V20.2899H35.1252L37.3394 23.6936H40.5385L37.8685 19.8178ZM36.8754 17.3582C36.737 17.5984 36.5579 17.7888 36.3137 17.9213C36.0776 18.0538 35.7927 18.1201 35.459 18.1201H33.546V14.882H35.459C35.7846 14.882 36.0695 14.9483 36.3137 15.0808C36.5498 15.2133 36.737 15.4038 36.8754 15.6439C37.0138 15.8841 37.0789 16.1739 37.0789 16.5135C37.0708 16.8282 37.0056 17.1098 36.8754 17.3582Z" fill="#FCFBFB" />
	<path d="M54.3773 12.5963V23.6935H51.6259V15.3623L49.2489 21.4575H46.7254L44.3647 15.4368V23.6935H41.825V12.5963H45.6835L47.9221 18.4513H48.2233L50.4456 12.5963H54.3773Z" fill="#FCFBFB" />
	<path d="M66.5956 12.5963H62.1428L58.6506 23.6935H61.4265L62.1998 21.1263H66.5549L67.3445 23.6935H70.2099L66.5956 12.5963ZM62.8917 18.8157L64.0721 14.882H64.6337L65.8467 18.8157H62.8917Z" fill="#FCFBFB" />
	<path d="M74.0362 12.5963V23.6935H71.3173V14.6004H70.3893V12.5963H74.0362Z" fill="#FCFBFB" />
	<path d="M84.928 23.6935H81.8998L79.4658 19.7764H78.7576V23.6935H76.0387V12.5963H78.7576V19.2132L81.5823 15.3043H84.4233L81.8184 18.882L84.928 23.6935Z" fill="#FCFBFB" />
	<path d="M89.6655 24C88.941 24 88.2898 23.8923 87.72 23.6687C87.1502 23.4451 86.6699 23.1387 86.2791 22.7412C85.8884 22.3437 85.5872 21.8882 85.3837 21.3747C85.1802 20.8613 85.0744 20.3064 85.0744 19.7184V19.354C85.0744 18.7495 85.1802 18.1781 85.3918 17.648C85.6035 17.118 85.9128 16.6625 86.3117 16.265C86.7106 15.8675 87.1909 15.5611 87.7607 15.3375C88.3305 15.1139 88.9573 15.0062 89.6574 15.0062C90.3656 15.0062 91.0005 15.1139 91.5622 15.3375C92.1239 15.5611 92.6042 15.8675 93.0031 16.265C93.4019 16.6625 93.7113 17.118 93.9229 17.648C94.1346 18.1781 94.2404 18.7412 94.2404 19.354V19.7184C94.2404 20.3064 94.1346 20.8613 93.9311 21.3747C93.7275 21.8882 93.4264 22.3437 93.0356 22.7412C92.6449 23.1387 92.1646 23.4451 91.5948 23.6687C91.0412 23.8841 90.3982 24 89.6655 24ZM89.6655 21.6894C90.0807 21.6894 90.4307 21.5983 90.7075 21.4161C90.9842 21.234 91.1878 20.9772 91.3262 20.646C91.4645 20.3147 91.5378 19.942 91.5378 19.528C91.5378 19.089 91.4645 18.7081 91.318 18.3768C91.1715 18.0456 90.9598 17.7888 90.6831 17.5901C90.4063 17.3996 90.0644 17.3002 89.6655 17.3002C89.2666 17.3002 88.9248 17.3996 88.648 17.5901C88.3712 17.7805 88.1596 18.0456 88.013 18.3768C87.8665 18.7081 87.7932 19.089 87.7932 19.528C87.7932 19.942 87.8665 20.3147 88.0049 20.646C88.1433 20.9772 88.3549 21.234 88.6317 21.4161C88.9166 21.5983 89.2585 21.6894 89.6655 21.6894Z" fill="#FCFBFB" />
	<path d="M103.724 18.8903V23.6936H101.005V18.8158C101.005 18.4348 100.891 18.1118 100.671 17.8634C100.443 17.6149 100.142 17.4907 99.7513 17.4907C99.3605 17.4907 99.0512 17.6149 98.8151 17.8634C98.5791 18.1118 98.4651 18.4348 98.4651 18.8406V23.6936H95.7462V15.3044H97.8953V17.499C97.9441 17.2257 98.0174 16.969 98.1069 16.7454C98.3267 16.1739 98.6523 15.7433 99.0838 15.4617C99.5152 15.1802 100.044 15.0394 100.663 15.0394H100.785C101.721 15.0394 102.446 15.3541 102.959 15.9917C103.471 16.6129 103.724 17.5818 103.724 18.8903Z" fill="#FCFBFB" />
	<path d="M112.605 24C111.587 24 110.733 23.8343 110.041 23.5114C109.349 23.1884 108.828 22.7412 108.47 22.178C108.12 21.6149 107.941 20.9689 107.941 20.2402H110.627C110.627 20.5052 110.7 20.7453 110.847 20.9606C110.993 21.176 111.205 21.3499 111.498 21.4658C111.783 21.59 112.157 21.648 112.605 21.648C112.996 21.648 113.321 21.5983 113.598 21.4989C113.875 21.3996 114.078 21.2588 114.225 21.0766C114.371 20.8944 114.445 20.6791 114.445 20.4223C114.445 20.0994 114.306 19.8509 114.038 19.6687C113.769 19.4948 113.313 19.3789 112.678 19.3292L111.978 19.2712C110.855 19.1718 109.959 18.8074 109.292 18.1946C108.624 17.5735 108.291 16.7536 108.291 15.735C108.291 15.0062 108.453 14.3851 108.787 13.8634C109.121 13.3499 109.593 12.9524 110.195 12.6791C110.806 12.4058 111.522 12.265 112.344 12.265C113.24 12.265 113.997 12.4141 114.624 12.7205C115.242 13.0269 115.723 13.4493 116.048 14.0041C116.374 14.559 116.545 15.1967 116.545 15.9255H113.859C113.859 15.6853 113.802 15.4617 113.679 15.2547C113.557 15.0559 113.386 14.8903 113.167 14.7743C112.939 14.6584 112.67 14.6004 112.353 14.6004C112.051 14.6004 111.799 14.6501 111.596 14.7412C111.392 14.8406 111.237 14.9731 111.132 15.147C111.026 15.3209 110.977 15.5114 110.977 15.7267C110.977 16.0083 111.075 16.2567 111.262 16.4555C111.449 16.6542 111.783 16.7785 112.247 16.8199L112.947 16.8778C113.761 16.9524 114.485 17.1263 115.112 17.4161C115.739 17.706 116.236 18.0952 116.594 18.5921C116.952 19.089 117.131 19.6936 117.131 20.4141C117.131 21.1346 116.952 21.764 116.586 22.3023C116.219 22.8406 115.706 23.2546 115.031 23.5528C114.355 23.8509 113.549 24 112.605 24Z" fill="#FCFBFB" />
	<path d="M121.234 17.3085L121.225 20.3478C121.225 20.7205 121.323 21.0103 121.518 21.2091C121.714 21.4078 121.991 21.5072 122.365 21.5072H123.497V23.8178H122.373C121.478 23.8178 120.761 23.7101 120.232 23.4865C119.703 23.2629 119.312 22.8902 119.076 22.3768C118.84 21.8633 118.718 21.1594 118.718 20.2815L118.726 17.3167H117.522V15.3126H118.726L118.734 13.1263H121.242L121.234 15.3126H123.497V17.3085H121.234Z" fill="#FCFBFB" />
	<path d="M131.604 16.6708C131.287 16.1657 130.839 15.7847 130.245 15.528C129.651 15.2713 128.934 15.147 128.088 15.147C127.787 15.147 127.461 15.1553 127.111 15.1636C126.761 15.1719 126.419 15.1884 126.085 15.2133C125.76 15.2298 125.475 15.2547 125.23 15.2713V17.5818C125.572 17.5652 125.939 17.5404 126.354 17.5238C126.761 17.5073 127.152 17.4907 127.518 17.4742C127.884 17.4659 128.169 17.4576 128.356 17.4576C128.755 17.4576 129.04 17.5487 129.219 17.7392C129.39 17.9214 129.48 18.1946 129.48 18.5673H128.177C127.428 18.5673 126.769 18.6584 126.191 18.8406C125.613 19.0228 125.157 19.3127 124.832 19.7019C124.506 20.0911 124.335 20.6046 124.335 21.2257C124.335 21.7806 124.465 22.2609 124.718 22.6584C124.97 23.0559 125.32 23.3623 125.768 23.5777C126.215 23.793 126.728 23.9006 127.306 23.9006C127.884 23.9006 128.373 23.793 128.763 23.5777C129.154 23.3623 129.463 23.0559 129.691 22.6584C129.781 22.4928 129.862 22.3106 129.919 22.1201V23.6853H132.068V18.5922C132.068 17.822 131.914 17.176 131.604 16.6708ZM129.26 21.4741C129.138 21.6895 128.991 21.8385 128.804 21.9213C128.617 22.0042 128.405 22.0539 128.169 22.0539C127.803 22.0539 127.518 21.9628 127.314 21.7723C127.119 21.5818 127.013 21.3416 127.013 21.0352C127.013 20.7205 127.111 20.4721 127.314 20.2816C127.51 20.0911 127.795 20 128.169 20H129.472V20.5963C129.455 20.969 129.382 21.2588 129.26 21.4741Z" fill="#FCFBFB" />
	<path d="M141.87 18.9234V23.6935H139.151V18.8157C139.151 18.4347 139.037 18.1118 138.809 17.8633C138.581 17.6149 138.272 17.4907 137.897 17.4907C137.515 17.4907 137.213 17.6149 136.969 17.8633C136.733 18.1118 136.611 18.4347 136.611 18.8405V23.6935H133.892V12.5963H136.611V16.6625C136.815 16.1408 137.108 15.7432 137.482 15.47C137.889 15.1801 138.386 15.031 138.98 15.031H139.102C139.997 15.031 140.681 15.3623 141.153 16.0165C141.634 16.6791 141.87 17.648 141.87 18.9234Z" fill="#FCFBFB" />
	<path d="M146.534 12.5963V23.6935H143.815V14.6004H142.887V12.5963H146.534Z" fill="#FCFBFB" />
</svg>
